<svg width="108" height="40" viewBox="0 0 108 40" fill="none" xmlns="http://www.w3.org/2000/svg">
<path d="M34.634 3.0417C35.3488 3.26527 35.6408 4.11863 35.2129 4.73323L34.5277 5.71714C34.3169 6.01988 34.2705 6.40766 34.4039 6.75159L34.8376 7.86939C35.1084 8.56762 34.6233 9.32799 33.876 9.37658L32.6795 9.45436C32.3114 9.47829 31.9793 9.68378 31.7936 10.0025L31.19 11.0385C30.813 11.6856 29.916 11.7804 29.4121 11.2264L28.6053 10.3395C28.3571 10.0666 27.9893 9.93507 27.6243 9.98863L26.4381 10.1627C25.6971 10.2714 25.0637 9.62922 25.1827 8.88979L25.3731 7.70604C25.4316 7.34181 25.3052 6.9723 25.0358 6.72032L24.1601 5.90137C23.6131 5.38981 23.7202 4.49426 24.3725 4.12622L25.4167 3.53702C25.738 3.35573 25.948 3.0265 25.9771 2.65873L26.0714 1.46348C26.1303 0.716859 26.8972 0.24228 27.5917 0.522773L28.7034 0.971809C29.0454 1.10997 29.4338 1.06893 29.7394 0.86231L30.7327 0.190804C31.3532 -0.228655 32.2024 0.0751062 32.4161 0.792918L32.7582 1.94205C32.8634 2.29563 33.1376 2.57368 33.4897 2.6838L34.634 3.0417Z" fill="#FFA800"/>
<path d="M25.6281 11.7188C28.2425 24.6686 21.771 33.3611 16.6933 34.7138C2.33695 38.5384 -1.66627 20.5591 11.8507 17.7307C15.4394 16.9798 18.0744 19.6417 10.9216 29.1319C10.9216 29.1319 14.2953 27.1303 17.2308 23.0863C18.8836 20.8094 19.746 17.7307 17.5098 15.6349C15.2736 13.539 11.4736 13.4692 7.35505 15.3133C1.34634 18.0036 -0.402699 23.8673 0.0743353 27.8185C1.11064 36.4026 10.0924 41.976 19.4746 37.3766C24.3866 34.9686 29.7326 29.6667 30.4928 15.3133C33.5696 30.1011 29.8422 35.1499 26.5842 38.7544H36.9965C33.6687 34.598 34.4073 19.3696 34.7869 11.543C34.7993 11.2889 34.8112 11.0426 34.8226 10.8047C34.5629 10.9087 34.2808 10.9745 33.9817 10.994L33.0551 11.0542L32.5877 11.8565C31.6609 13.4473 29.4559 13.6804 28.217 12.3184L27.5922 11.6316L26.6736 11.7664C26.3104 11.8197 25.9577 11.7996 25.6281 11.7188Z" fill="black"/>
<path d="M101.571 33.0226C101.571 34.2867 101.328 35.3581 100.841 36.237C100.355 37.1159 99.697 37.7834 98.8667 38.2397C98.0402 38.6959 97.1127 38.9241 96.0843 38.9241C95.0521 38.9241 94.1227 38.6941 93.2962 38.2341C92.4697 37.7741 91.8134 37.1065 91.3272 36.2314C90.8447 35.3525 90.6035 34.2829 90.6035 33.0226C90.6035 31.7585 90.8447 30.687 91.3272 29.8082C91.8134 28.9293 92.4697 28.2617 93.2962 27.8055C94.1227 27.3492 95.0521 27.1211 96.0843 27.1211C97.1127 27.1211 98.0402 27.3492 98.8667 27.8055C99.697 28.2617 100.355 28.9293 100.841 29.8082C101.328 30.687 101.571 31.7585 101.571 33.0226ZM98.7321 33.0226C98.7321 32.2746 98.6255 31.6426 98.4123 31.1265C98.2029 30.6104 97.9 30.2196 97.5035 29.954C97.1109 29.6885 96.6378 29.5557 96.0843 29.5557C95.5345 29.5557 95.0614 29.6885 94.665 29.954C94.2686 30.2196 93.9638 30.6104 93.7506 31.1265C93.5412 31.6426 93.4365 32.2746 93.4365 33.0226C93.4365 33.7706 93.5412 34.4026 93.7506 34.9187C93.9638 35.4348 94.2686 35.8256 94.665 36.0911C95.0614 36.3567 95.5345 36.4894 96.0843 36.4894C96.6378 36.4894 97.1109 36.3567 97.5035 36.0911C97.9 35.8256 98.2029 35.4348 98.4123 34.9187C98.6255 34.4026 98.7321 33.7706 98.7321 33.0226Z" fill="black"/>
<path d="M88.9858 27.2773V38.7662H86.209V27.2773H88.9858Z" fill="black"/>
<path d="M78.9146 38.7662H74.668V27.2773H78.909C80.0795 27.2773 81.0874 27.5073 81.9326 27.9673C82.7816 28.4236 83.4361 29.0818 83.8961 29.942C84.3561 30.7984 84.5861 31.8231 84.5861 33.0161C84.5861 34.2129 84.3561 35.2414 83.8961 36.1015C83.4398 36.9617 82.7872 37.6218 81.9382 38.0818C81.0893 38.538 80.0814 38.7662 78.9146 38.7662ZM77.4448 36.3988H78.808C79.4512 36.3988 79.9954 36.2904 80.4404 36.0735C80.8892 35.8528 81.2277 35.4957 81.4558 35.002C81.6877 34.5046 81.8036 33.8427 81.8036 33.0161C81.8036 32.1896 81.6877 31.5314 81.4558 31.0415C81.2239 30.5478 80.8817 30.1926 80.4292 29.9756C79.9804 29.755 79.4269 29.6447 78.7687 29.6447H77.4448V36.3988Z" fill="black"/>
<path d="M70.1575 27.2773H72.9288V34.6879C72.9288 35.5443 72.725 36.2904 72.3173 36.9262C71.9097 37.5582 71.3412 38.0481 70.6119 38.3959C69.8827 38.74 69.0356 38.912 68.0707 38.912C67.0946 38.912 66.2419 38.74 65.5126 38.3959C64.7834 38.0481 64.2168 37.5582 63.8129 36.9262C63.409 36.2904 63.207 35.5443 63.207 34.6879V27.2773H65.9839V34.4466C65.9839 34.8431 66.0699 35.1965 66.2419 35.5069C66.4177 35.8173 66.6627 36.0604 66.9768 36.2362C67.2909 36.4119 67.6556 36.4998 68.0707 36.4998C68.4858 36.4998 68.8486 36.4119 69.159 36.2362C69.4732 36.0604 69.7181 35.8173 69.8939 35.5069C70.0697 35.1965 70.1575 34.8431 70.1575 34.4466V27.2773Z" fill="black"/>
<path d="M52.1367 29.5325V27.2773H61.8472V29.5325H58.3636V38.7662H55.626V29.5325H52.1367Z" fill="black"/>
<path d="M48.2969 30.7226C48.2595 30.3112 48.093 29.9914 47.7976 29.7633C47.5059 29.5314 47.0889 29.4155 46.5466 29.4155C46.1876 29.4155 45.8884 29.4622 45.649 29.5557C45.4097 29.6492 45.2302 29.7783 45.1105 29.9428C44.9908 30.1036 44.9291 30.2887 44.9254 30.4982C44.9179 30.6702 44.9516 30.8217 45.0264 30.9526C45.1049 31.0835 45.2171 31.1994 45.3629 31.3004C45.5125 31.3976 45.6921 31.4836 45.9015 31.5584C46.1109 31.6332 46.3465 31.6987 46.6083 31.7548L47.5956 31.9792C48.1641 32.1026 48.6652 32.2671 49.0991 32.4728C49.5366 32.6785 49.9031 32.9235 50.1986 33.2077C50.4978 33.4919 50.724 33.8192 50.8774 34.1894C51.0307 34.5597 51.1092 34.9748 51.113 35.4348C51.1092 36.1603 50.926 36.783 50.5632 37.3028C50.2004 37.8227 49.6787 38.221 48.9981 38.4977C48.3212 38.7745 47.504 38.9128 46.5466 38.9128C45.5855 38.9128 44.7477 38.7689 44.0334 38.4809C43.3191 38.1929 42.7637 37.7554 42.3673 37.1682C41.9709 36.5811 41.7671 35.8387 41.7559 34.9411H44.4149C44.4373 35.3114 44.5364 35.6199 44.7122 35.8667C44.888 36.1136 45.1292 36.3006 45.4359 36.4277C45.7463 36.5549 46.1053 36.6185 46.513 36.6185C46.8869 36.6185 47.2048 36.568 47.4666 36.467C47.7321 36.366 47.936 36.2258 48.0781 36.0463C48.2202 35.8667 48.2931 35.661 48.2969 35.4292C48.2931 35.2123 48.2258 35.0271 48.0949 34.8738C47.964 34.7167 47.7621 34.5821 47.4891 34.4699C47.2198 34.354 46.8757 34.2474 46.4569 34.1501L45.2564 33.8697C44.2616 33.6415 43.4781 33.2732 42.9059 32.7645C42.3337 32.2522 42.0494 31.5603 42.0532 30.6889C42.0494 29.9783 42.2402 29.3557 42.6254 28.8209C43.0106 28.2861 43.5435 27.8691 44.2242 27.5699C44.9048 27.2707 45.6808 27.1211 46.5522 27.1211C47.4423 27.1211 48.2146 27.2726 48.8691 27.5755C49.5273 27.8747 50.0378 28.2954 50.4005 28.8377C50.7633 29.38 50.9484 30.0083 50.9559 30.7226H48.2969Z" fill="black"/>
<path d="M93.5234 12.9141H96.9622L99.8793 20.0273H100.014L102.931 12.9141H106.37V24.4029H103.666V17.3458H103.571L100.811 24.33H99.0827L96.3227 17.3065H96.2273V24.4029H93.5234V12.9141Z" fill="black"/>
<path d="M89.013 12.9141H91.7842V20.3246C91.7842 21.181 91.5804 21.9271 91.1728 22.5629C90.7651 23.1949 90.1967 23.6848 89.4674 24.0326C88.7381 24.3767 87.8911 24.5487 86.9262 24.5487C85.9501 24.5487 85.0974 24.3767 84.3681 24.0326C83.6388 23.6848 83.0723 23.1949 82.6684 22.5629C82.2645 21.9271 82.0625 21.181 82.0625 20.3246V12.9141H84.8393V20.0834C84.8393 20.4798 84.9254 20.8332 85.0974 21.1436C85.2732 21.454 85.5181 21.6971 85.8323 21.8729C86.1464 22.0487 86.5111 22.1365 86.9262 22.1365C87.3413 22.1365 87.7041 22.0487 88.0145 21.8729C88.3286 21.6971 88.5736 21.454 88.7494 21.1436C88.9251 20.8332 89.013 20.4798 89.013 20.0834V12.9141Z" fill="black"/>
<path d="M73.0664 24.4029V12.9141H75.8432V22.1478H80.6228V24.4029H73.0664Z" fill="black"/>
<path d="M63.3145 24.4029V12.9141H71.3252V15.1692H66.0913V17.5253H70.9157V19.786H66.0913V22.1478H71.3252V24.4029H63.3145Z" fill="black"/>
<path d="M51.4961 24.4029V12.9141H54.2729V17.5253H58.8V12.9141H61.5713V24.4029H58.8V19.786H54.2729V24.4029H51.4961Z" fill="black"/>
<path d="M47.0179 12.9141H49.7555V20.8575C49.7517 21.6017 49.5741 22.2525 49.2225 22.8097C48.871 23.3632 48.3848 23.7933 47.764 24.1C47.1469 24.4066 46.4326 24.56 45.6211 24.56C44.903 24.56 44.2504 24.4347 43.6632 24.1841C43.0798 23.9335 42.6142 23.5446 42.2664 23.0173C41.9223 22.49 41.7522 21.8149 41.7559 20.9921H44.5215C44.5328 21.2876 44.5889 21.54 44.6898 21.7495C44.7945 21.9552 44.9385 22.1104 45.1218 22.2151C45.305 22.3198 45.5238 22.3721 45.7781 22.3721C46.0437 22.3721 46.268 22.316 46.4513 22.2039C46.6346 22.0879 46.7729 21.9178 46.8664 21.6934C46.9637 21.469 47.0141 21.1904 47.0179 20.8575V12.9141Z" fill="black"/>
<path d="M105.829 35.6984C106.234 35.7781 106.446 36.2288 106.248 36.5918C106.15 36.7706 106.148 36.9861 106.242 37.1668C106.433 37.5337 106.212 37.9801 105.805 38.0517C105.604 38.0869 105.435 38.2196 105.352 38.4057C105.184 38.7835 104.697 38.8894 104.387 38.6157C104.235 38.4809 104.025 38.4308 103.828 38.4821C103.428 38.5863 103.042 38.272 103.063 37.8591C103.073 37.6557 102.981 37.4605 102.818 37.3385C102.487 37.0906 102.492 36.5928 102.828 36.3516C102.994 36.2328 103.089 36.0395 103.083 35.836C103.07 35.4228 103.463 35.1163 103.861 35.2284C104.057 35.2837 104.267 35.2378 104.423 35.1061C104.738 34.8386 105.222 34.9543 105.383 35.3353C105.462 35.523 105.629 35.6591 105.829 35.6984Z" fill="#FFA800"/>
</svg>
